<svg xmlns:mydata="http://www.w3.org/2000/svg" mydata:contrastcolor="11111f" mydata:template="Contrast" mydata:presentation="2.5" mydata:layouttype="undefined" mydata:specialfontid="undefined" mydata:id1="090" mydata:id2="052" mydata:companyname="Mallorca Transfer" mydata:companytagline="Big One For Groups" version="1.1" xmlns="http://www.w3.org/2000/svg" xmlns:xlink="http://www.w3.org/1999/xlink" viewBox="0 0 550 470"><g fill="#4ec3e0" fill-rule="nonzero" stroke="none" stroke-width="1" stroke-linecap="butt" stroke-linejoin="miter" stroke-miterlimit="10" stroke-dasharray="" stroke-dashoffset="0" font-family="none" font-weight="none" font-size="none" text-anchor="none" style="mix-blend-mode: normal"><g data-paper-data="{&quot;isGlobalGroup&quot;:true,&quot;bounds&quot;:{&quot;x&quot;:112.52453090032705,&quot;y&quot;:114.99999999999997,&quot;width&quot;:324.95093819934584,&quot;height&quot;:240.00000000000003}}"><g data-paper-data="{&quot;isSecondaryText&quot;:true}"><path d="M192.33092,332.39097h3.11626c2.28199,0 3.34937,-0.80974 3.34937,-2.93223c0,-1.30049 -0.74839,-2.14703 -1.72989,-2.3556c0.74839,-0.50302 0.85881,-1.07965 0.85881,-1.65628c0,-1.47225 -1.07965,-2.50282 -2.785,-2.50282h-2.80954zM194.01173,328.13372h1.43544c1.22687,0 1.53359,0.42941 1.53359,1.36183c0,0.89562 -0.1963,1.36183 -1.50905,1.36183h-1.45998zM195.14046,324.39175c0.83427,0 1.04284,0.60117 1.04284,1.07965c0,0.60117 -0.33126,1.10419 -1.03057,1.10419h-1.12872v-2.18384z" data-paper-data="{&quot;glyphName&quot;:&quot;B&quot;,&quot;glyphIndex&quot;:0,&quot;firstGlyphOfWord&quot;:true,&quot;word&quot;:1}"></path><path d="M205.14067,325.31191h-1.68082v7.09133h1.68082zM203.3617,323.69244c0,1.23914 1.90165,1.22687 1.90165,0c0,-1.23914 -1.90165,-1.25141 -1.90165,0z" data-paper-data="{&quot;glyphName&quot;:&quot;i&quot;,&quot;glyphIndex&quot;:1,&quot;word&quot;:1}"></path><path d="M212.43927,332.42778c0.84654,0 1.27595,-0.34352 1.53359,-0.73612v0.87108c0,0.89562 -0.28218,1.34956 -1.16553,1.34956c-0.67478,0 -1.00604,-0.29445 -1.00604,-0.85881h-1.6072c0,1.53359 0.84654,2.29425 2.61324,2.29425c1.75443,0 2.73593,-0.89562 2.73593,-2.77273v-7.42259h-1.38637l-0.12269,0.79747c-0.28218,-0.51529 -0.82201,-0.83427 -1.64401,-0.83427c-1.42317,0 -2.3556,0.7852 -2.3556,2.79727v1.8035c0,1.86485 0.89562,2.71139 2.40467,2.71139zM212.75825,330.94326c-0.69932,0 -1.04284,-0.41714 -1.04284,-1.43544v-1.50905c0,-1.04284 0.40487,-1.38637 1.06738,-1.38637c0.83427,0 1.10419,0.61344 1.10419,1.44771v1.4109c0,0.92016 -0.26991,1.47225 -1.12872,1.47225z" data-paper-data="{&quot;glyphName&quot;:&quot;g&quot;,&quot;glyphIndex&quot;:2,&quot;lastGlyphOfWord&quot;:true,&quot;word&quot;:1}"></path><path d="M229.92965,332.47685c2.24518,0 3.22668,-0.87108 3.22668,-2.82181v-3.99961c0,-1.9998 -0.94469,-2.82181 -3.22668,-2.82181c-2.28199,0 -3.15307,0.82201 -3.15307,2.82181v3.99961c0,1.95073 0.90789,2.82181 3.15307,2.82181zM229.92965,330.98007c-1.22687,0 -1.45998,-0.51529 -1.45998,-1.4109v-3.82785c0,-0.85881 0.23311,-1.4109 1.45998,-1.4109c1.31275,0 1.53359,0.55209 1.53359,1.4109v3.82785c0,0.89562 -0.30672,1.4109 -1.53359,1.4109z" data-paper-data="{&quot;glyphName&quot;:&quot;O&quot;,&quot;glyphIndex&quot;:3,&quot;firstGlyphOfWord&quot;:true,&quot;word&quot;:2}"></path><path d="M238.4929,332.39097h1.68082v-4.5149c0,-0.93242 0.51529,-1.25141 1.16553,-1.25141c0.69932,0 1.09192,0.38033 1.09192,1.31275v4.45355h1.66855v-4.46582c0,-2.20837 -1.16553,-2.83408 -2.3556,-2.82181c-0.61344,0 -1.25141,0.24537 -1.70535,0.7852l-0.08588,-0.73612h-1.45998z" data-paper-data="{&quot;glyphName&quot;:&quot;n&quot;,&quot;glyphIndex&quot;:4,&quot;word&quot;:2}"></path><path d="M253.18013,330.17033c0,0.50302 -0.33126,0.7852 -1.12872,0.7852c-0.68705,0 -1.14099,-0.22084 -1.14099,-1.38637v-0.18403h3.926v-1.43544c0,-1.95073 -0.90789,-2.82181 -2.80954,-2.82181c-1.90165,0 -2.80954,1.00604 -2.80954,2.82181v1.64401c0,1.95073 0.90789,2.82181 2.80954,2.82181c1.90165,0 2.80954,-0.72386 2.80954,-2.24518zM252.07595,326.58786c0.95696,0 1.12872,0.50302 1.12872,1.4109h-2.29425c0,-0.87108 0.17176,-1.4109 1.16553,-1.4109z" data-paper-data="{&quot;glyphName&quot;:&quot;e&quot;,&quot;glyphIndex&quot;:5,&quot;lastGlyphOfWord&quot;:true,&quot;word&quot;:2}"></path><path d="M271.73945,322.94404h-5.5332v9.4592h1.68082v-4.02415h3.26348v-1.53359h-3.26348v-2.3556h3.85238z" data-paper-data="{&quot;glyphName&quot;:&quot;F&quot;,&quot;glyphIndex&quot;:6,&quot;firstGlyphOfWord&quot;:true,&quot;word&quot;:3}"></path><path d="M278.94068,332.51366c1.90165,0 2.80954,-0.87108 2.80954,-2.82181v-1.74216c0,-1.95073 -0.90789,-2.82181 -2.80954,-2.82181c-1.90165,0 -2.80954,0.92016 -2.80954,2.82181v1.74216c0,1.95073 0.90789,2.82181 2.80954,2.82181zM278.94068,331.01687c-0.88335,0 -1.11646,-0.51529 -1.11646,-1.4109v-1.5704c0,-0.89562 0.23311,-1.4109 1.11646,-1.4109c0.88335,0 1.11646,0.51529 1.11646,1.4109v1.5704c0,0.89562 -0.23311,1.4109 -1.11646,1.4109z" data-paper-data="{&quot;glyphName&quot;:&quot;o&quot;,&quot;glyphIndex&quot;:7,&quot;word&quot;:3}"></path><path d="M290.22713,325.11561c-0.89562,-0.14722 -1.71762,0.29445 -2.01207,0.79747l-0.07361,-0.76066h-1.54586v7.25082h1.68082v-4.14683c0,-1.07965 0.85881,-1.50905 1.95073,-1.36183z" data-paper-data="{&quot;glyphName&quot;:&quot;r&quot;,&quot;glyphIndex&quot;:8,&quot;lastGlyphOfWord&quot;:true,&quot;word&quot;:3}"></path><path d="M304.24593,328.55086h1.6072v0.92016c0,0.93242 -0.42941,1.44771 -1.65628,1.44771c-1.22687,0 -1.45998,-0.51529 -1.45998,-1.4109v-3.70516c0,-0.85881 0.23311,-1.4109 1.45998,-1.4109c1.31275,0 1.53359,0.44167 1.53359,1.32502h1.69309c0,-2.02434 -0.94469,-2.82181 -3.22668,-2.82181c-2.28199,0 -3.15307,0.89562 -3.15307,2.82181v3.79104c0,2.03661 0.90789,2.93223 3.15307,2.93223c2.24518,0 3.22668,-0.89562 3.22668,-2.96903v-2.45375h-3.1776z" data-paper-data="{&quot;glyphName&quot;:&quot;G&quot;,&quot;glyphIndex&quot;:9,&quot;firstGlyphOfWord&quot;:true,&quot;word&quot;:4}"></path><path d="M315.9151,325.11561c-0.89562,-0.14722 -1.71762,0.29445 -2.01207,0.79747l-0.07361,-0.76066h-1.54586v7.25082h1.68082v-4.14683c0,-1.07965 0.85881,-1.50905 1.95073,-1.36183z" data-paper-data="{&quot;glyphName&quot;:&quot;r&quot;,&quot;glyphIndex&quot;:10,&quot;word&quot;:4}"></path><path d="M322.92986,332.51366c1.90165,0 2.80954,-0.87108 2.80954,-2.82181v-1.74216c0,-1.95073 -0.90789,-2.82181 -2.80954,-2.82181c-1.90165,0 -2.80954,0.92016 -2.80954,2.82181v1.74216c0,1.95073 0.90789,2.82181 2.80954,2.82181zM322.92986,331.01687c-0.88335,0 -1.11646,-0.51529 -1.11646,-1.4109v-1.5704c0,-0.89562 0.23311,-1.4109 1.11646,-1.4109c0.88335,0 1.11646,0.51529 1.11646,1.4109v1.5704c0,0.89562 -0.23311,1.4109 -1.11646,1.4109z" data-paper-data="{&quot;glyphName&quot;:&quot;o&quot;,&quot;glyphIndex&quot;:11,&quot;word&quot;:4}"></path><path d="M336.42094,325.14015h-1.71762v4.5149c0,0.93242 -0.51529,1.25141 -1.16553,1.25141c-0.69932,0 -1.09192,-0.38033 -1.09192,-1.31275v-4.45355h-1.66855v4.46582c0,2.20837 1.16553,2.83408 2.3556,2.82181c0.61344,0 1.25141,-0.24537 1.70535,-0.7852l0.08588,0.73612h1.49679z" data-paper-data="{&quot;glyphName&quot;:&quot;u&quot;,&quot;glyphIndex&quot;:12,&quot;word&quot;:4}"></path><path d="M341.72991,325.15242v9.43466h1.68082v-2.76047c0.28218,0.47848 0.89562,0.63797 1.48452,0.63797c1.6072,0 2.42921,-0.99377 2.42921,-2.69912v-1.86485c0,-2.01207 -0.95696,-2.79727 -2.38013,-2.79727c-0.82201,0 -1.42317,0.31899 -1.70535,0.83427l-0.12269,-0.7852zM344.50265,330.90645c-0.67478,0 -1.09192,-0.33126 -1.09192,-1.20234v-1.65628c0,-0.83427 0.30672,-1.44771 1.14099,-1.44771c0.66251,0 1.09192,0.34352 1.09192,1.38637v1.70535c0,0.87108 -0.41714,1.2146 -1.14099,1.2146z" data-paper-data="{&quot;glyphName&quot;:&quot;p&quot;,&quot;glyphIndex&quot;:13,&quot;word&quot;:4}"></path><path d="M357.58366,327.42213c0,-1.30049 -0.84654,-2.30652 -2.62551,-2.30652c-1.5704,0 -2.73593,0.72386 -2.73593,2.3556c0,1.42317 1.01831,1.87712 2.07342,2.01207c0.87108,0.11042 1.66855,0.12269 1.66855,0.73612c0,0.35579 -0.34352,0.73612 -1.01831,0.73612c-0.80974,0 -1.07965,-0.29445 -1.11646,-0.79747h-1.70535c0,1.39864 1.03057,2.26972 2.7482,2.26972c1.55813,0 2.79727,-0.68705 2.79727,-2.26972c0,-1.28822 -0.96923,-1.86485 -1.93846,-1.97527c-0.96923,-0.11042 -1.8035,0 -1.8035,-0.79747c0,-0.50302 0.3926,-0.76066 1.04284,-0.76066c0.53982,0 0.96923,0.24537 0.96923,0.79747z" data-paper-data="{&quot;glyphName&quot;:&quot;s&quot;,&quot;glyphIndex&quot;:14,&quot;lastGlyphOfWord&quot;:true,&quot;word&quot;:4}"></path></g><g data-paper-data="{&quot;isPrimaryText&quot;:true}"><path d="M126.62381,284.97362l9.2468,15.98147l9.21117,-15.98147h3.36733v28.50652h-3.68803v-20.59596l-8.89047,15.39352l-8.9261,-15.39352v20.59596h-3.68803v-28.50652z" data-paper-data="{&quot;glyphName&quot;:&quot;M&quot;,&quot;glyphIndex&quot;:0,&quot;firstGlyphOfWord&quot;:true,&quot;word&quot;:1}"></path><path d="M170.55948,305.17762v-2.70812c-0.2138,-1.15214 -0.78393,-2.19738 -1.71039,-3.13572c-1.24716,-1.23528 -2.74375,-1.85292 -4.48978,-1.85292c-1.7579,0 -3.25746,0.61764 -4.49868,1.85292c-1.24122,1.23528 -1.86183,2.73187 -1.86183,4.48978c0,1.74602 0.62061,3.23965 1.86183,4.48087c1.24122,1.24122 2.74078,1.86183 4.49868,1.86183c1.74602,0 3.24262,-0.61764 4.48978,-1.85292c0.92646,-0.93834 1.49659,-1.98358 1.71039,-3.13572zM170.55948,296.42968v-1.28279h3.70585v18.35107h-3.70585v-2.29834c-1.78166,1.84105 -3.84838,2.76157 -6.20017,2.76157c-2.80314,0 -5.19353,-0.98882 -7.17117,-2.96646c-1.97764,-1.97764 -2.96646,-4.36803 -2.96646,-7.17117c0,-2.80314 0.98882,-5.19353 2.96646,-7.17117c1.97764,-1.97764 4.36803,-2.96646 7.17117,-2.96646c2.35179,0 4.41851,0.91458 6.20017,2.74375z" data-paper-data="{&quot;glyphName&quot;:&quot;a&quot;,&quot;glyphIndex&quot;:1,&quot;word&quot;:1}"></path><path d="M183.33396,284.95581v28.52433h-3.70585v-28.52433z" data-paper-data="{&quot;glyphName&quot;:&quot;l&quot;,&quot;glyphIndex&quot;:2,&quot;word&quot;:1}"></path><path d="M192.38478,284.95581v28.52433h-3.70585v-28.52433z" data-paper-data="{&quot;glyphName&quot;:&quot;l&quot;,&quot;glyphIndex&quot;:3,&quot;word&quot;:1}"></path><path d="M206.79839,293.6503c2.80314,0 5.19353,0.99179 7.17117,2.97537c1.97764,1.98358 2.96646,4.37694 2.96646,7.18008c0,2.80314 -0.98882,5.1965 -2.96646,7.18008c-1.97764,1.98358 -4.36803,2.97537 -7.17117,2.97537c-2.79126,0 -5.17868,-0.99179 -7.16226,-2.97537c-1.98358,-1.98358 -2.97537,-4.37694 -2.97537,-7.18008c0,-2.80314 0.99179,-5.1965 2.97537,-7.18008c1.98358,-1.98358 4.371,-2.97537 7.16226,-2.97537zM206.79839,297.44523c-1.7579,0 -3.25746,0.62358 -4.49868,1.87074c-1.24122,1.24716 -1.86183,2.74375 -1.86183,4.48978c0,1.7579 0.62061,3.25449 1.86183,4.48978c1.24122,1.23528 2.74078,1.85292 4.49868,1.85292c1.7579,0 3.25746,-0.61764 4.49868,-1.85292c1.24122,-1.23528 1.86183,-2.73187 1.86183,-4.48978c0,-1.74602 -0.62061,-3.24262 -1.86183,-4.48978c-1.24122,-1.24716 -2.74078,-1.87074 -4.49868,-1.87074z" data-paper-data="{&quot;glyphName&quot;:&quot;o&quot;,&quot;glyphIndex&quot;:4,&quot;word&quot;:1}"></path><path d="M224.90003,297.62339c1.37781,-1.8648 3.07039,-2.84471 5.07772,-2.93973v3.83056c-1.34218,0.07127 -2.41118,0.5048 -3.20698,1.30061c-1.19965,1.18777 -1.82323,2.60122 -1.87074,4.24034v9.42497h-3.68803v-18.33325h3.68803z" data-paper-data="{&quot;glyphName&quot;:&quot;r&quot;,&quot;glyphIndex&quot;:5,&quot;word&quot;:1}"></path><path d="M247.95467,307.19089l3.68803,1.31843c-0.90271,1.24716 -1.55598,2.07266 -1.95982,2.4765c-1.98358,1.98358 -4.37694,2.97537 -7.18008,2.97537c-2.79126,0 -5.17868,-0.99179 -7.16226,-2.97537c-1.98358,-1.98358 -2.97537,-4.37694 -2.97537,-7.18008c0,-2.80314 0.99179,-5.1965 2.97537,-7.18008c1.98358,-1.98358 4.371,-2.97537 7.16226,-2.97537c2.80314,0 5.1965,0.99179 7.18008,2.97537c0.40384,0.40384 1.05712,1.21747 1.95982,2.44087l-3.68803,1.35406c-0.47511,-0.58201 -0.79581,-0.95616 -0.96209,-1.12244c-1.23528,-1.23528 -2.73187,-1.85292 -4.48978,-1.85292c-1.74602,0 -3.23965,0.62061 -4.48087,1.86183c-1.24122,1.24122 -1.86183,2.74078 -1.86183,4.49868c0,1.74602 0.62061,3.23965 1.86183,4.48087c1.24122,1.24122 2.73484,1.86183 4.48087,1.86183c1.7579,0 3.26043,-0.61764 4.50759,-1.85292c0.15441,-0.16629 0.46917,-0.5345 0.94428,-1.10463z" data-paper-data="{&quot;glyphName&quot;:&quot;c&quot;,&quot;glyphIndex&quot;:6,&quot;word&quot;:1}"></path><path d="M271.81106,305.17762v-2.70812c-0.2138,-1.15214 -0.78393,-2.19738 -1.71039,-3.13572c-1.24716,-1.23528 -2.74375,-1.85292 -4.48978,-1.85292c-1.7579,0 -3.25746,0.61764 -4.49868,1.85292c-1.24122,1.23528 -1.86183,2.73187 -1.86183,4.48978c0,1.74602 0.62061,3.23965 1.86183,4.48087c1.24122,1.24122 2.74078,1.86183 4.49868,1.86183c1.74602,0 3.24262,-0.61764 4.48978,-1.85292c0.92646,-0.93834 1.49659,-1.98358 1.71039,-3.13572zM271.81106,296.42968v-1.28279h3.70585v18.35107h-3.70585v-2.29834c-1.78166,1.84105 -3.84838,2.76157 -6.20017,2.76157c-2.80314,0 -5.19353,-0.98882 -7.17117,-2.96646c-1.97764,-1.97764 -2.96646,-4.36803 -2.96646,-7.17117c0,-2.80314 0.98882,-5.19353 2.96646,-7.17117c1.97764,-1.97764 4.36803,-2.96646 7.17117,-2.96646c2.35179,0 4.41851,0.91458 6.20017,2.74375z" data-paper-data="{&quot;glyphName&quot;:&quot;a&quot;,&quot;glyphIndex&quot;:7,&quot;lastGlyphOfWord&quot;:true,&quot;word&quot;:1}"></path><path d="M301.61819,288.66166v24.81849h-3.70585v-24.81849h-6.64558v-3.68803h16.99701v3.68803z" data-paper-data="{&quot;glyphName&quot;:&quot;T&quot;,&quot;glyphIndex&quot;:8,&quot;firstGlyphOfWord&quot;:true,&quot;word&quot;:2}"></path><path d="M314.71337,297.62339c1.37781,-1.8648 3.07039,-2.84471 5.07772,-2.93973v3.83056c-1.34218,0.07127 -2.41118,0.5048 -3.20698,1.30061c-1.19965,1.18777 -1.82323,2.60122 -1.87074,4.24034v9.42497h-3.68803v-18.33325h3.68803z" data-paper-data="{&quot;glyphName&quot;:&quot;r&quot;,&quot;glyphIndex&quot;:9,&quot;word&quot;:2}"></path><path d="M339.26461,305.17762v-2.70812c-0.2138,-1.15214 -0.78393,-2.19738 -1.71039,-3.13572c-1.24716,-1.23528 -2.74375,-1.85292 -4.48978,-1.85292c-1.7579,0 -3.25746,0.61764 -4.49868,1.85292c-1.24122,1.23528 -1.86183,2.73187 -1.86183,4.48978c0,1.74602 0.62061,3.23965 1.86183,4.48087c1.24122,1.24122 2.74078,1.86183 4.49868,1.86183c1.74602,0 3.24262,-0.61764 4.48978,-1.85292c0.92646,-0.93834 1.49659,-1.98358 1.71039,-3.13572zM339.26461,296.42968v-1.28279h3.70585v18.35107h-3.70585v-2.29834c-1.78166,1.84105 -3.84838,2.76157 -6.20017,2.76157c-2.80314,0 -5.19353,-0.98882 -7.17117,-2.96646c-1.97764,-1.97764 -2.96646,-4.36803 -2.96646,-7.17117c0,-2.80314 0.98882,-5.19353 2.96646,-7.17117c1.97764,-1.97764 4.36803,-2.96646 7.17117,-2.96646c2.35179,0 4.41851,0.91458 6.20017,2.74375z" data-paper-data="{&quot;glyphName&quot;:&quot;a&quot;,&quot;glyphIndex&quot;:10,&quot;word&quot;:2}"></path><path d="M352.03909,300.06426v13.41588h-3.70585v-18.33325h3.70585v2.13799c0.77205,-2.09048 2.32209,-3.13572 4.65013,-3.13572c1.98358,0 3.56035,0.70375 4.7303,2.11126c1.16995,1.40751 1.77275,3.17432 1.80838,5.30043v11.91929h-3.68803v-11.77675c0,-1.05712 -0.38603,-1.96279 -1.15808,-2.71703c-0.77205,-0.75423 -1.69257,-1.13135 -2.76157,-1.13135c-1.05712,0 -1.9717,0.36821 -2.74375,1.10463c-0.4276,0.43948 -0.70672,0.80768 -0.83738,1.10463z" data-paper-data="{&quot;glyphName&quot;:&quot;n&quot;,&quot;glyphIndex&quot;:11,&quot;word&quot;:2}"></path><path d="M371.83331,308.3846c0.1069,0.54637 0.27319,0.9324 0.49886,1.15808c0.43948,0.4276 0.96209,0.6414 1.56786,0.6414c0.60576,0 1.12541,-0.2138 1.55895,-0.6414c0.43354,-0.4276 0.6503,-0.95616 0.6503,-1.58568c0,-0.60576 -0.2138,-1.12244 -0.6414,-1.55004c-0.29694,-0.29694 -0.9324,-0.75423 -1.90637,-1.37188c-1.3303,-0.72454 -2.27458,-1.36594 -2.83284,-1.92419c-0.97397,-0.97397 -1.46096,-2.14393 -1.46096,-3.50986c0,-1.37781 0.48699,-2.55668 1.46096,-3.53659c0.97397,-0.97991 2.14987,-1.46987 3.52768,-1.46987c1.37781,0 2.52401,0.46323 3.4386,1.38969c0.65327,0.65327 1.06899,1.38375 1.24716,2.19144l-3.58113,1.03336c-0.08314,-0.29694 -0.16629,-0.49293 -0.24943,-0.58795c-0.2138,-0.2138 -0.49886,-0.3207 -0.8552,-0.3207c-0.35633,0 -0.66218,0.12769 -0.91755,0.38306c-0.25537,0.25537 -0.38306,0.56122 -0.38306,0.91755c0,0.35633 0.12472,0.65921 0.37415,0.90865c0.22568,0.2138 0.73642,0.57607 1.53223,1.08681c1.47284,0.80768 2.54183,1.5441 3.20698,2.20926c1.15214,1.16402 1.72821,2.54777 1.72821,4.15126c0,1.63912 -0.5731,3.03773 -1.7193,4.1958c-1.1462,1.15808 -2.53886,1.73712 -4.17799,1.73712c-1.62725,0 -3.01694,-0.58201 -4.16908,-1.74602c-0.79581,-0.79581 -1.31843,-1.7876 -1.56786,-2.97537z" data-paper-data="{&quot;glyphName&quot;:&quot;s&quot;,&quot;glyphIndex&quot;:12,&quot;word&quot;:2}"></path><path d="M388.61652,298.8171v14.68086h-3.70585v-14.68086h-1.63912v-3.68803h1.63912v-3.29607c0.08314,-1.52035 0.66515,-2.8269 1.74602,-3.91965c1.11651,-1.04524 2.41118,-1.56786 3.88401,-1.56786c0.73642,0 1.85292,0.25537 3.34952,0.76611l-1.22934,3.49205c-1.04524,-0.43948 -1.70445,-0.65921 -1.97764,-0.65921c-0.49886,0 -0.97991,0.20786 -1.44314,0.62358c-0.39196,0.39196 -0.59982,0.86113 -0.62358,1.40751v3.15353h3.29607v3.68803z" data-paper-data="{&quot;glyphName&quot;:&quot;f&quot;,&quot;glyphIndex&quot;:13,&quot;word&quot;:2}"></path><path d="M401.19502,309.32888c0.61764,0.54637 1.74009,0.81956 3.36733,0.81956c1.7579,0 3.26043,-0.61764 4.50759,-1.85292c0.15441,-0.16629 0.46917,-0.5345 0.94428,-1.10463l3.68803,1.31843c-0.90271,1.24716 -1.55598,2.07266 -1.95982,2.4765c-1.98358,1.98358 -4.37694,2.97537 -7.18008,2.97537c-2.79126,0 -5.17868,-0.99179 -7.16226,-2.97537c-1.98358,-1.98358 -2.97537,-4.37694 -2.97537,-7.18008c0,-2.80314 0.99179,-5.1965 2.97537,-7.18008c1.98358,-1.98358 4.371,-2.97537 7.16226,-2.97537c2.3993,0 4.50165,0.72454 6.30707,2.17362c0.29694,0.24943 0.58795,0.51668 0.87301,0.80175c0.11878,0.11878 0.45729,0.49293 1.01554,1.12244l-1.85292,1.87074zM407.35955,297.92627c-0.41572,-0.3207 -1.34812,-0.48105 -2.7972,-0.48105c-1.74602,0 -3.23965,0.62061 -4.48087,1.86183c-1.24122,1.24122 -1.86183,2.74078 -1.86183,4.49868c0,1.4372 0.16035,2.3696 0.48105,2.7972z" data-paper-data="{&quot;glyphName&quot;:&quot;e&quot;,&quot;glyphIndex&quot;:14,&quot;word&quot;:2}"></path><path d="M421.66626,297.62339c1.37781,-1.8648 3.07039,-2.84471 5.07772,-2.93973v3.83056c-1.34218,0.07127 -2.41118,0.5048 -3.20698,1.30061c-1.19965,1.18777 -1.82323,2.60122 -1.87074,4.24034v9.42497h-3.68803v-18.33325h3.68803z" data-paper-data="{&quot;glyphName&quot;:&quot;r&quot;,&quot;glyphIndex&quot;:15,&quot;lastGlyphOfWord&quot;:true,&quot;word&quot;:2}"></path></g><g data-paper-data="{&quot;fillRule&quot;:&quot;nonzero&quot;,&quot;fillRuleOriginal&quot;:&quot;nonzero&quot;,&quot;isIcon&quot;:true,&quot;iconStyle&quot;:&quot;standalone&quot;,&quot;selectedEffects&quot;:{&quot;container&quot;:&quot;&quot;,&quot;transformation&quot;:&quot;&quot;,&quot;pattern&quot;:&quot;&quot;},&quot;bounds&quot;:{&quot;x&quot;:220.56658579801575,&quot;y&quot;:114.99999999999997,&quot;width&quot;:108.86728746175243,&quot;height&quot;:144.0043484943814},&quot;iconType&quot;:&quot;icon&quot;,&quot;rawIconId&quot;:&quot;18f1a13b-99a3-4eb0-94f1-1a3341d3c996&quot;,&quot;isDetailed&quot;:false,&quot;suitableAsStandaloneIcon&quot;:true}"><path d="M269.24006,125.94433h-34.41704v-10.94433h80.35443v10.94433h-34.41704v133.06002h-11.52035zM267.80001,203.99469l-30.52892,-70.70614h-16.7045v107.71525h12.09637v-91.44276l35.13706,80.49843zM312.72937,133.28855l-30.67293,70.70614v26.06479l35.28107,-80.49843v91.44276h12.09637v-107.71525z" data-paper-data="{&quot;isPathIcon&quot;:true}"></path></g><path d="M112.52453,349.72084v-158.12796c0,-1.45797 0.51543,-2.70232 1.54629,-3.73306c1.03092,-1.03074 2.27537,-1.54611 3.73333,-1.54611h99.28135l0,1.37717h-99.28135c-1.07787,0 -1.99782,0.38102 -2.75986,1.14305c-0.76173,0.76142 -1.14259,1.68107 -1.14259,2.75894v158.12796c0,1.07726 0.38086,1.9969 1.14259,2.75894c0.76204,0.76204 1.68199,1.14305 2.75986,1.14305h314.39215c1.07787,0 1.99782,-0.38102 2.75986,-1.14305c0.76142,-0.76204 1.14214,-1.68168 1.14214,-2.75894v-158.12796c0,-1.07787 -0.38071,-1.99751 -1.14214,-2.75894c-0.76204,-0.76204 -1.68199,-1.14305 -2.75986,-1.14305h-99.28135l0,-1.37717h99.28135c1.45797,0 2.70232,0.51537 3.73306,1.54611c1.03074,1.03074 1.54611,2.27509 1.54611,3.73306v158.12796c0,1.45797 -0.51537,2.70232 -1.54611,3.73306c-1.03074,1.03074 -2.27509,1.54611 -3.73306,1.54611h-314.39215c-1.45797,0 -2.70241,-0.51537 -3.73333,-1.54611c-1.03086,-1.03074 -1.54629,-2.27509 -1.54629,-3.73306z" data-paper-data="{&quot;isLogoContainer&quot;:true}"></path></g></g></svg>